<?xml version="1.0" encoding="utf-8"?>
<!-- Generator: Adobe Illustrator 16.0.0, SVG Export Plug-In . SVG Version: 6.00 Build 0)  -->
<!DOCTYPE svg PUBLIC "-//W3C//DTD SVG 1.1//EN" "http://www.w3.org/Graphics/SVG/1.1/DTD/svg11.dtd">
<svg version="1.1" id="Layer_1" xmlns="http://www.w3.org/2000/svg" xmlns:xlink="http://www.w3.org/1999/xlink" x="0px" y="0px"
	 width="38px" height="38px" viewBox="0 0 38 38" enable-background="new 0 0 38 38" xml:space="preserve">
<path fill="#3A56A0" d="M19,0C8.507,0,0,8.507,0,19s8.507,19,19,19c0.416,0,0.828-0.016,1.237-0.041V23.32H15.29v-5.991h4.947
	v-5.032c0-3.66,2.967-6.627,6.627-6.627h5.172v5.388h-3.701c-1.163,0-2.106,0.943-2.106,2.106v4.165h5.715l-0.79,5.991h-4.925
	v13.255C33.137,33.729,38,26.934,38,19C38,8.507,29.493,0,19,0"/>
</svg>
