<?xml version="1.0" encoding="utf-8"?>
<!-- Generator: Adobe Illustrator 16.0.0, SVG Export Plug-In . SVG Version: 6.00 Build 0)  -->
<!DOCTYPE svg PUBLIC "-//W3C//DTD SVG 1.1//EN" "http://www.w3.org/Graphics/SVG/1.1/DTD/svg11.dtd">
<svg version="1.1" id="Layer_1" xmlns="http://www.w3.org/2000/svg" xmlns:xlink="http://www.w3.org/1999/xlink" x="0px" y="0px"
	 width="38px" height="38px" viewBox="0 0 38 38" enable-background="new 0 0 38 38" xml:space="preserve">
<path d="M19,0C8.507,0,0,8.508,0,19c0,10.494,8.507,19,19,19c10.494,0,19-8.506,19-19C38,8.508,29.494,0,19,0
	 M22.153,20.6c-0.65,4.269-3.833,6.716-7.953,6.716c-4.63,0-8.384-3.754-8.384-8.384s3.754-8.384,8.384-8.384
	c2.24,0,4.202,0.8,5.631,2.187l-2.406,2.406c-0.814-0.821-1.93-1.258-3.225-1.258c-2.727,0-4.936,2.323-4.936,5.048
	c0,2.727,2.209,4.983,4.936,4.983c2.284,0,4.014-1.104,4.513-3.314H14.2v-3.367h7.932c0.096,0.542,0.145,1.11,0.145,1.698
	C22.276,19.515,22.233,20.07,22.153,20.6 M32.221,19.556h-2.938v2.937h-2.087v-2.937h-2.938v-2.088h2.938v-2.938h2.087v2.938h2.938
	V19.556z"></path>
</svg>
