<?xml version="1.0" encoding="utf-8"?>
<!-- Generator: Adobe Illustrator 16.0.0, SVG Export Plug-In . SVG Version: 6.00 Build 0)  -->
<!DOCTYPE svg PUBLIC "-//W3C//DTD SVG 1.1//EN" "http://www.w3.org/Graphics/SVG/1.1/DTD/svg11.dtd">
<svg version="1.1" id="Layer_1" xmlns="http://www.w3.org/2000/svg" xmlns:xlink="http://www.w3.org/1999/xlink" x="0px" y="0px"
	 width="38px" height="38px" viewBox="0 0 38 38" enable-background="new 0 0 38 38" xml:space="preserve">
<>
	<polygon  points="14.167,19.879 9.448,19.879 9.448,21.331 11.038,21.331 11.038,30.014 12.573,30.014
		12.573,21.327 14.167,21.327 	"></polygon>
	<path  d="M16.71,28.108c0,0.047,0,0.104-0.026,0.138c-0.175,0.227-0.383,0.414-0.657,0.515
		c-0.238,0.087-0.427-0.02-0.477-0.267c-0.021-0.098-0.021-0.2-0.021-0.3c-0.001-1.839-0.006-5.608-0.008-5.654h-1.357
		c0,0.052-0.001,5.303,0.002,6.294c0.001,0.27,0.029,0.536,0.142,0.785c0.12,0.271,0.318,0.441,0.616,0.49
		c0.218,0.038,0.43,0.014,0.637-0.057c0.424-0.146,0.756-0.422,1.048-0.752c0.026-0.029,0.054-0.058,0.103-0.11v0.824h1.36v-3.605
		v-3.881l-1.36,0.003V28.108z"></path>
	<path  d="M23.14,23.124c-0.287-0.611-0.891-0.773-1.413-0.642c-0.317,0.08-0.573,0.263-0.784,0.499
		c-0.07,0.078-0.147,0.232-0.147,0.232v-3.336h-1.362v10.135h1.362v-0.568c0,0,0.098,0.103,0.132,0.14
		c0.313,0.339,0.692,0.525,1.159,0.53c0.576,0.005,0.977-0.273,1.158-0.82c0.084-0.254,0.112-0.516,0.112-0.781
		c0.002-1.417,0.002-2.834,0-4.25C23.356,23.871,23.309,23.485,23.14,23.124 M21.955,26.349c0,0.655-0.001,1.311-0.002,1.967v0.027
		c0,0.076-0.009,0.153-0.024,0.228c-0.063,0.297-0.288,0.431-0.609,0.364c-0.194-0.039-0.346-0.151-0.477-0.293
		c-0.006-0.007-0.043-0.058-0.043-0.058v-0.111l-0.004-4.5v-0.001c0,0,0.029-0.083,0.094-0.139c0.16-0.142,0.337-0.231,0.558-0.209
		c0.188,0.018,0.339,0.105,0.409,0.279c0.052,0.133,0.094,0.279,0.095,0.422c0.003,0.67,0.004,1.339,0.004,2.009V26.349z"></path>
	<path  d="M27.031,27.356v0.961c0,0.336-0.271,0.608-0.606,0.608c-0.336,0-0.608-0.272-0.608-0.608v-1.87h2.609
		c0,0,0.015-1.305,0.004-1.896c-0.004-0.253-0.023-0.509-0.075-0.756c-0.135-0.641-0.479-1.123-1.124-1.335
		c-0.188-0.063-0.393-0.095-0.592-0.107c-0.663-0.043-1.243,0.146-1.697,0.654c-0.397,0.445-0.536,0.979-0.537,1.56
		c-0.002,1.11-0.007,2.222,0.004,3.331c0.003,0.282,0.035,0.571,0.1,0.847c0.138,0.591,0.461,1.056,1.03,1.312
		c0.416,0.189,0.855,0.198,1.3,0.133c0.715-0.104,1.202-0.488,1.438-1.18c0.177-0.518,0.157-1.653,0.157-1.653L27.031,27.356z
		 M25.816,24.237c0-0.335,0.272-0.607,0.608-0.607c0.335,0,0.606,0.272,0.606,0.607v1.051h-1.215V24.237z"></path>
	<path  d="M19,0C8.506,0,0,8.507,0,19c0,10.492,8.506,19,19,19c10.493,0,19-8.508,19-19C38,8.507,29.493,0,19,0
		 M21.407,7.921h1.384v5.737c0,0.076,0.006,0.153,0.019,0.229c0.042,0.236,0.217,0.347,0.445,0.268
		c0.277-0.096,0.489-0.288,0.669-0.514c0.025-0.033,0.021-0.093,0.021-0.141V7.921h1.395l-0.001,7.523h-1.394l0.002-0.808
		c-0.155,0.152-0.286,0.294-0.432,0.421c-0.256,0.226-0.546,0.394-0.886,0.461c-0.521,0.103-0.965-0.063-1.132-0.603
		c-0.055-0.181-0.089-0.374-0.09-0.563V7.921z M18.24,7.731c1.103,0,1.997,0.895,1.995,1.997v3.907c0,1.103-0.893,1.996-1.995,1.996
		c-1.104,0-1.997-0.894-1.997-1.996V9.729C16.243,8.626,17.137,7.731,18.24,7.731 M12.869,5.259c0,0,0.635,2.692,0.937,3.969h0.001
		c0.302-1.276,0.937-3.969,0.937-3.969h1.587c0,0-1.22,4.043-1.765,5.846c-0.02,0.065-0.028,0.136-0.028,0.204l0.001,4.135h-1.463
		v-4.135c0-0.068-0.01-0.139-0.028-0.204c-0.545-1.803-1.764-5.846-1.764-5.846H12.869z M30.315,29.256
		c0,1.849-1.478,3.359-3.325,3.399c-5.326,0.114-10.654,0.114-15.98,0c-1.848-0.04-3.326-1.551-3.326-3.399v-8.318
		c0-1.849,1.479-3.359,3.326-3.398c5.326-0.114,10.654-0.114,15.98,0c1.848,0.039,3.325,1.55,3.325,3.398V29.256z"></path>
	<path d="M18.24,14.291c0.317,0,0.575-0.259,0.575-0.576V9.649c0-0.318-0.258-0.576-0.575-0.576
	c-0.318,0-0.576,0.258-0.576,0.576v4.065C17.664,14.032,17.922,14.291,18.24,14.291"></path>
</g>

</svg>
